<svg width="25" height="11" viewBox="0 0 25 11" fill="none" xmlns="http://www.w3.org/2000/svg">
  <path d="M5.83962 2.33733C5.40587 1.91511 4.82558 1.68319 4.22184 1.69508C3.11987 1.69508 2.18789 2.45032 1.85378 3.46722L1.85241 3.46613C1.67813 3.99997 1.67844 4.57492 1.85378 5.10258C2.18789 6.11353 3.11987 6.86877 4.22184 6.86877C4.79041 6.86877 5.27675 6.72008 5.65775 6.45842C6.10322 6.16109 6.40802 5.68535 6.50181 5.15609H4.22167V3.50884H8.20165C8.24854 3.79428 8.27199 4.08567 8.27199 4.37706C8.27199 5.68535 7.81479 6.7855 7.01762 7.52884C6.3201 8.18298 5.35898 8.56359 4.22184 8.56359C2.6275 8.56359 1.16798 7.65374 0.452877 6.20868V6.20272C-0.150957 4.99553 -0.15096 3.56831 0.452874 2.36112C1.16798 0.916059 2.6275 0.000258808 4.22184 0.000258808C5.27105 -0.0116347 6.27924 0.386798 7.0471 1.1123L5.83962 2.33733Z" fill="#8B8D98"/>
  <path fill-rule="evenodd" clip-rule="evenodd" d="M11.53 8.05214V5.03119H13.0892C13.7281 5.03119 14.2674 4.8171 14.707 4.39489L14.8125 4.28784C15.6155 3.41367 15.5628 2.05187 14.707 1.24311C14.2791 0.814942 13.6929 0.583019 13.0892 0.594912H10.5863V8.05214H11.53ZM11.5301 4.11534V1.51067H13.1129C13.4529 1.51067 13.7754 1.64149 14.0157 1.87936C14.5258 2.37889 14.5375 3.21144 14.0451 3.7288C13.8047 3.98452 13.4647 4.12724 13.1129 4.11534H11.5301Z" fill="#8B8D98"/>
  <path fill-rule="evenodd" clip-rule="evenodd" d="M19.2146 3.34823C18.8102 2.97358 18.2592 2.78329 17.5617 2.78329C16.6648 2.78329 15.9908 3.11631 15.5453 3.7764L16.3776 4.30566C16.6824 3.8537 17.0986 3.62773 17.6261 3.62773C17.9602 3.62773 18.2826 3.75261 18.5347 3.97859C18.7809 4.19267 18.9215 4.5019 18.9215 4.82897V5.049C18.5581 4.84681 18.1009 4.73977 17.5382 4.73977C16.8817 4.73977 16.3542 4.89439 15.9615 5.20956C15.5687 5.52474 15.3694 5.94101 15.3694 6.47027C15.3577 6.95196 15.5629 7.40986 15.9263 7.71909C16.2956 8.05211 16.7645 8.21862 17.3155 8.21862C17.9661 8.21862 18.4819 7.92723 18.8746 7.34445H18.9157V8.05211H19.8184V4.90628C19.8184 4.24619 19.6191 3.72288 19.2146 3.34823ZM16.6533 7.11254C16.4599 6.96982 16.3426 6.73789 16.3426 6.48813C16.3426 6.20863 16.4716 5.97671 16.7237 5.79236C16.9816 5.60801 17.3041 5.51287 17.6851 5.51287C18.2127 5.50692 18.6231 5.62585 18.9162 5.86372C18.9162 6.2681 18.7579 6.61896 18.4472 6.9163C18.1658 7.20174 17.7848 7.3623 17.3861 7.3623C17.1223 7.36825 16.8644 7.27905 16.6533 7.11254Z" fill="#8B8D98"/>
  <path d="M25 2.94979L21.8465 10.294H20.8735L22.0458 7.72503L19.9767 2.94979H21.0024L22.4971 6.61298H22.5147L23.9742 2.94979H25Z" fill="#8B8D98"/>
  </svg>
  